<svg xmlns="http://www.w3.org/2000/svg" viewBox="0 0 273.9 51.6" preserveAspectRatio="xMidYMid meet"> <g fill="currentColor" transform="translate(25.3,-281.1)"> <path d="M54.75,287.13v-.39c-.05-.49-.41-.84-1.05-1.04-.33-.12-.88-.18-1.26.05-.49.24-.84.94-1.63,3.22-1.96,5.51-4.72,11.44-8.21,17.6-3.49,6.14-7.23,11.71-11.13,16.53-1.12,1.44-2.22,2.67-3.27,3.64-2.07,1.94-3.22,2.36-3.8,2.38-.14,0-.42,0-.71-.63-.34-.74-.51-1.95-.51-3.61,0-2.29.36-5.31,1.08-8.98.73-3.76,1.89-7.94,3.43-12.43.42-1.15.62-1.94.62-2.46v-.35c0-.35-.17-.85-.87-1.14-.27-.18-.57-.27-.89-.27-.15,0-.33.03-.64.12-.29.09-.83.25-4.15,4.28-5.19,6.21-9.33,10.82-12.31,13.7-1.73,1.68-2.59,2.28-2.99,2.5.05-.95.59-2.81,1.63-5.55,1.23-3.26,2.78-6.86,4.61-10.7,1.89-3.97,3.76-7.47,5.56-10.41.63-1,.92-1.74.92-2.33,0-.65-.41-1.35-1.57-1.35-.5,0-1.03.37-1.73,1.21-1.35,1.74-3,4.61-4.91,8.53-1.94,3.97-3.69,7.96-5.2,11.86-1.71,4.48-2.54,7.45-2.54,9.06,0,2.86,1.2,3.47,2.21,3.47.93,0,2.12-.55,3.66-1.69,2.99-2.22,7.58-7,13.64-14.21-1.95,6.52-2.93,12.04-2.93,16.41,0,1.65.14,3.01.42,4.17.53,2.29,1.61,3.66,3.2,4.07h.02c.32.08.6.11.87.11,1.08,0,2.24-.42,3.57-1.29,3.52-2.27,7.96-7.53,13.18-15.62,6.08-9.49,10.48-18.25,13.07-26.03.41-1.15.6-1.93.6-2.44Z"/> <path d="M154.2,314.01s-.12,0-.24.01l-.31.02c-.4.03-.87.26-1.67.81-2.85,2.23-5.7,3.65-8.51,4.24-.6.15-.95.23-1.16.26,0-.01,0-.02,0-.03l.02-.46c0-5.94,2.32-6.06,3.11-6.1.86-.07,1.36-.47,1.5-1.12.09-.21.14-.45.14-.68,0-.25.02-1.01-1.22-1.43-1.73-.43-3.31.19-4.63,1.72-.7.82-1.23,1.85-1.61,3.05-.25.13-.54.31-.91.56-2.85,2.23-5.7,3.65-8.51,4.24-.6.15-.95.23-1.16.26,0-.01,0-.02,0-.03l.02-.46c0-5.94,2.32-6.06,3.11-6.1.86-.07,1.36-.47,1.5-1.12.09-.21.14-.45.14-.68,0-.25.02-1.01-1.22-1.43-1.73-.43-3.31.19-4.63,1.72-.7.82-1.23,1.85-1.61,3.05-.6.18-1.54.57-3.16,1.41-2.56,1.27-4.78,2.13-6.6,2.57-.99.23-1.8.35-2.4.35-.76,0-1.08-.16-1.24-.29-.04-.02-.07-.05-.07-.18,0-.21.12-.71.94-1.71,1.15.94,2.62.93,3.86.24.64-.37,1.1-.86,1.4-1.46.21-.38.32-.8.32-1.24,0-.32-.05-.63-.17-.95-.28-.77-.95-1.68-2.53-1.68-.4,0-.81.06-1.24.19-1.21.32-2.42,1.06-3.63,2.23-.33.33-.6.66-.86.98-.33.15-.71.33-1.21.57l-.31.15c-4.12,2.14-5.85,2.59-6.57,2.59-.34,0-.4-.07-.39-.06-.01-.02-.06-.08-.06-.26,0-.26.08-.62.24-1.06.47-1.32.67-2.17.67-2.75,0-.87-.4-1.35-.66-1.55-.4-.4-.89-.61-1.45-.61h0c-.5.03-1.13.28-1.93.77-.89.55-2.32,1.58-4.49,3.24.24-.43.57-1,1.03-1.72.43-.71.64-1.28.64-1.75,0-.81-.56-1.39-1.34-1.39-.22,0-.47.07-.84.19-.42.17-.88.63-1.41,1.41-.53.8-.97,1.55-1.34,2.24-.26.13-.54.29-.83.49-3.42,2.3-6.07,3.85-7.88,4.6-.68.28-1.27.48-1.85.65-.68.2-1.23.3-1.62.3-.12,0-.19-.01-.24-.02-.08-.25-.12-.55-.12-.92,0-.79.18-1.8.54-3.02.57-2.1.6-2.12,1.05-2.31,1.93-1.03,4.02-2.63,6.2-4.76,4.45-4.43,8.34-9.48,11.58-15.02,2.18-3.78,3.42-6.96,3.71-9.5l.02-.53c0-.85-.2-1.57-.62-2.15-1.04-1.28-2.63-1.43-4.51-.33-1.85,1.09-3.97,3.25-6.47,6.6-2.18,2.94-4.61,6.8-7.21,11.46-3.31,6.01-5.49,10.81-6.63,14.55-.22.12-.44.23-.67.4-3.42,2.3-6.07,3.85-7.88,4.6-.68.28-1.27.48-1.85.65-.68.2-1.23.3-1.62.3-.12,0-.19-.01-.24-.02-.08-.25-.12-.55-.12-.92,0-.79.18-1.8.54-3.02.57-2.1.6-2.12,1.05-2.31,1.93-1.03,4.02-2.63,6.2-4.76,4.45-4.43,8.34-9.48,11.58-15.02,2.18-3.78,3.42-6.96,3.71-9.5l.02-.53c0-.85-.2-1.57-.62-2.15-1.04-1.28-2.63-1.43-4.51-.33-1.85,1.09-3.97,3.25-6.47,6.6-2.18,2.94-4.61,6.8-7.21,11.46-3.17,5.76-5.33,10.42-6.5,14.1-.6.22-1.48.61-2.82,1.3-2.56,1.27-4.78,2.13-6.6,2.57-.99.23-1.8.35-2.4.35-.76,0-1.08-.16-1.24-.29-.04-.02-.07-.05-.07-.18,0-.21.12-.71.94-1.71,1.15.94,2.62.93,3.86.24.64-.37,1.1-.86,1.4-1.46.21-.38.32-.8.32-1.24,0-.32-.05-.63-.17-.95-.28-.77-.95-1.68-2.53-1.68-.4,0-.81.06-1.24.19-1.21.32-2.42,1.06-3.63,2.23-1.5,1.52-2.23,2.96-2.23,4.4,0,1.04.43,2.46,2.46,3.34h.01c.69.29,1.51.44,2.43.44,2.52,0,5.97-1.12,10.25-3.33.11-.06.2-.1.31-.15-.07.53-.11,1.03-.11,1.49,0,2,.68,3.34,2.03,3.95l.08.03c.46.14.99.21,1.57.21,1.03,0,2.18-.24,3.41-.71,1.87-.69,3.92-1.7,6.26-3.09.49-.29.94-.59,1.4-.89,0,.16-.04.34-.04.49,0,2,.68,3.34,2.03,3.95l.08.03c.46.14.99.21,1.57.21,1.03,0,2.18-.24,3.41-.71,1.87-.69,3.92-1.7,6.26-3.09.42-.25.81-.51,1.21-.77.25.98.98,1.26,1.34,1.34.88.18,2.25-.31,4.05-1.67l2.52-1.9c.37-.29.69-.52.95-.72-.21.68-.31,1.28-.31,1.81,0,.41.05.76.17,1.08.32.84.87,1.41,1.65,1.67.48.17,1,.25,1.52.25.61,0,1.28-.1,2.06-.29,1.51-.4,3.04-.97,4.52-1.7.31-.15.62-.3.91-.45.22.88.84,1.84,2.36,2.5h.01c.69.29,1.51.44,2.43.44,2.52,0,5.97-1.12,10.25-3.33.36-.18.67-.34.96-.49-.02.67-.06,1.82-.13,1.98,0,0-.04.02-.16.04-1.12.22-2.15.66-3.07,1.34-1.76,1.35-2.82,2.93-3.14,4.68-.04.24-.07.48-.07.7,0,1.34.58,2.34,1.74,2.97l.04.02c.46.21.93.31,1.39.31,1.36,0,2.75-.74,4.11-2.21,1.41-1.51,2.25-3.42,2.19-5.12.02-.01.13-.07.56-.13,1.66-.24,3.46-.77,5.37-1.57,1.61-.69,3.08-1.46,4.4-2.31-.02.58-.06,1.17-.11,1.28,0,0-.04.02-.16.04-1.12.22-2.15.66-3.07,1.34-1.76,1.35-2.82,2.93-3.14,4.68-.04.24-.07.48-.07.7,0,1.34.58,2.34,1.74,2.97l.04.02c.46.21.93.31,1.39.31,1.36,0,2.75-.74,4.11-2.21,1.41-1.51,2.25-3.42,2.19-5.12.02-.01.13-.07.56-.13,1.66-.24,3.46-.77,5.37-1.57,1.89-.8,3.59-1.72,5.06-2.74.86-.59,1.59-1.21,2.19-1.86.42-.49.61-.9.61-1.31,0-.31-.11-.52-.16-.58-.14-.24-.5-.65-1.34-.65ZM135.96,326.78c-.18.07-.28.07-.26.13,0,0-.02-.04-.02-.15,0-.49.37-1.13,1.01-1.8.22-.19.53-.41.9-.65.36-.22.63-.37.84-.48-.09.2-.22.44-.42.76-.71,1.21-1.57,2.02-2.05,2.2ZM82.42,309.45c1.35-2.97,2.85-5.91,4.48-8.75,3.96-6.8,7.44-11.74,10.32-14.7.84-.84,1.3-1.12,1.52-1.22,0,.03,0,.06,0,.09,0,.56-.21,1.52-.62,2.83-1.03,2.99-2.8,6.29-5.26,9.81-1.52,2.19-3.23,4.4-5.08,6.56-1.73,2.02-3.54,3.83-5.37,5.38ZM67.7,309.45c1.35-2.97,2.85-5.91,4.48-8.75,3.96-6.8,7.44-11.74,10.32-14.7.84-.84,1.3-1.12,1.52-1.22,0,.03,0,.06,0,.09,0,.56-.21,1.52-.62,2.83-1.03,2.99-2.8,6.29-5.26,9.81-1.52,2.19-3.23,4.4-5.08,6.56-1.73,2.02-3.54,3.83-5.37,5.38ZM122.7,326.78c-.18.07-.28.07-.26.13,0,0-.02-.04-.02-.15,0-.49.37-1.13,1.01-1.8.22-.19.53-.41.9-.65.36-.22.63-.37.84-.48-.09.2-.22.44-.42.76-.71,1.21-1.57,2.02-2.05,2.2Z"/> <path d="M242.65,314.95c-.19-.46-.63-.72-1.19-.72-.54,0-1.24.22-2.2.71-1.76.9-3.33,1.35-4.66,1.35s-2.23-.5-2.64-1.48c-.17-.49-.7-2-1.9-2-.44,0-.92.19-1.5.58-.77.51-1.9,1.52-3.43,3.06-.66.64-1.19,1.16-1.6,1.56.07-.18.15-.38.24-.6.42-1.03.93-2.15,1.55-3.41.51-1.07,1.03-2.02,1.48-2.74.49-.67.75-1.26.75-1.77,0-.44-.19-.8-.48-1-.88-.8-1.91-.52-2.92.79-.77.98-1.71,2.75-2.8,5.26-.02.04-.03.08-.05.12-.37.15-.83.37-1.44.67l-.31.15c-4.12,2.14-5.85,2.59-6.57,2.59-.34,0-.4-.07-.39-.06-.01-.02-.06-.08-.06-.26,0-.26.08-.62.24-1.06.47-1.32.67-2.17.67-2.75,0-.87-.4-1.35-.66-1.55-.4-.4-.89-.61-1.45-.61h0c-.5.03-1.13.28-1.93.77-.89.55-2.32,1.58-4.49,3.24.24-.43.57-1,1.03-1.72.43-.71.64-1.28.64-1.75,0-.81-.56-1.39-1.34-1.39-.04,0-.09.01-.14.02-.1-.4-.36-.85-1.04-1.27-3.12-1.72-6.92-2.85-11.03-3.28,1.08-1.97,1.99-3.96,2.69-5.95.86-2.55,1.29-4.87,1.29-6.89l-.04-1.87c-.02-1.22-.53-2.53-1.56-4-1.02-1.43-2.46-2.4-4.3-2.87-1.83-.46-3.94-.38-6.39.22-3.22.77-6.84,2.54-11.08,5.42-1.65,1.16-3.27,2.44-4.81,3.82-1.54,1.36-2.83,2.65-3.84,3.82-1.03,1.21-1.48,2.04-1.48,2.77l.02.14c.25,1.09.98,1.21,1.28,1.21.71,0,1.53-.57,2.66-1.85,2.98-3.27,6.13-5.96,9.38-7.99,3.27-2.06,6.33-3.42,9.09-4.05,2.09-.49,3.67-.54,5.76.2.9.33,1.52,1.2,1.88,2.64.11.53.17,1.14.17,1.82,0,1.4-.34,3.26-1.01,5.52-.68,2.25-1.88,4.85-3.56,7.74h-.46c-7.86.11-14.35,2.41-19.3,6.84-3.21,3-5.33,5.97-6.31,8.8-.38,1.1-.56,2.05-.56,2.92,0,.42.07.98.23,1.77.21.92.93,1.67,2.14,2.24h.03c.61.27,1.27.39,2.01.39,2.75,0,6.11-1.47,10.28-4.5,5.18-3.89,9.82-8.94,13.81-15.01,4.27.26,8.16,1.28,11.28,2.97.17.09.31.14.46.2-1.65,2.56-2.46,4.55-2.46,6.06s.99,1.94,1.43,2.03c.88.18,2.25-.31,4.05-1.67l2.52-1.9c.37-.29.69-.52.95-.72-.21.68-.31,1.28-.31,1.81,0,.41.05.76.17,1.08.32.84.87,1.41,1.65,1.67.48.17,1,.25,1.52.25.61,0,1.28-.1,2.06-.29,1.51-.4,3.04-.97,4.52-1.7.3-.14.58-.28.86-.42-.13.56-.19,1.04-.19,1.45,0,1.5.8,2.09,1.32,2.31.23.13.49.19.8.19.8,0,1.78-.5,3.01-1.53.94-.76,2.2-1.94,3.71-3.49.4-.4.73-.73.92-.94l.15.23c.99,1.5,2.83,2.26,5.48,2.26,1.01,0,2.21-.17,3.54-.51,1.38-.33,2.63-1,3.84-2.07.37-.37.55-.76.55-1.17,0-.34-.08-.64-.2-.85ZM167.22,325.74c-.81,0-1.02-.32-1.09-.42-.15-.22-.22-.52-.22-.88,0-.53.17-1.2.5-2.02.79-1.94,2.42-4.13,4.84-6.5,1.02-.96,1.98-1.75,2.9-2.38,1.99-1.12,4.13-2.06,6.37-2.79,1.89-.62,4.05-.98,6.42-1.07-1.36,1.9-3.02,3.94-4.97,6.1-1.73,1.96-3.82,3.91-6.2,5.79-2.33,1.85-4.69,3.18-7.02,3.93-.6.17-1.1.25-1.53.25Z"/> </g> </svg>